<?xml version="1.0" encoding="utf-8"?>
<!-- Generator: Adobe Illustrator 24.0.2, SVG Export Plug-In . SVG Version: 6.00 Build 0)  -->
<svg version="1.1" id="Capa_1" xmlns="http://www.w3.org/2000/svg" xmlns:xlink="http://www.w3.org/1999/xlink" x="0px" y="0px"
	 viewBox="0 0 243.4 63.5" style="enable-background:new 0 0 243.4 63.5;" xml:space="preserve">
<style type="text/css">
	.st0{fill:#913EFE;}
</style>
<g>
	<path class="st0" d="M47.9,33.8c0,11.6-2.7,20-8.6,27.3c-1.9,2.4-4.2,4.2-7.2,1.8c-2.9-2.3-1.7-4.9,0.2-7.4
		c8.5-11.3,8.4-23.4,2.7-35.8c-1.1-2.3-1.9-4.5-5.5-2.8c-3.2,1.6-2.9,3.1-1.7,5.8c4.6,10,4.8,19.9-0.5,29.8
		c-0.8,1.5-1.8,2.8-2.8,4.1c-1.8,2.1-4,3.3-6.5,1.4c-2.7-2-2.4-4.5-0.5-6.9c6-7.6,6.1-15.8,2.4-24.4c-1.1-2.6-2.4-3.8-5.2-2
		c-2.1,1.4-5.2,1.6-3,5.6c3,5.3,2.7,10.9-0.6,16.1C9.6,49,7.5,50.5,4.5,49c-3-1.6-3-4.2-1.2-6.8c2.6-3.8,1.5-7.2-1.1-10.5
		c-3.4-4.4-3-6.2,1.8-8.9c1.6-0.9,3.2-1.8,4.9-2.6c2.5-1.2,5-2.1,2.7-5.8c-1.1-1.7,0.1-3.6,1.7-4.7c1.7-1.1,3.5-1.1,5.1,0.2
		c0.9,0.7,1.6,1.7,2.6,2.3c2.6,1.8,4.6-0.3,6.2-1.6c1.9-1.5-0.6-2.5-1.4-3.3c-2.1-2.3-2.9-4.7-0.7-7.1c2.6-2.7,5.1-1.3,7.3,0.9
		C42.2,10.7,47.7,22.3,47.9,33.8z"/>
	<path class="st0" d="M83.5,36.2c3.3-7.7,6.6-15.4,9.9-23.1C95.2,9,99,7.5,103,8.9c1.7,0.6,1.5,2,1.5,3.3c0,11-0.1,21.9,0.1,32.9
		c0,3.3-2,3.2-4.3,3.2s-4.3,0.1-4.2-3.2c0.2-6,0-11.9-0.4-18c-3.6,5.1-5.2,11.1-7.7,16.7c-1,2.2-1.4,4.6-4.8,4.7
		c-3.6,0-4.3-2.3-5.3-4.8c-2.3-5.6-4.7-11.2-8.1-16.6c0,5.7-0.2,11.4,0.1,17.1c0.1,3.2-0.9,4.3-4.2,4.3c-3.4,0-4.2-1.2-4.2-4.4
		c0.2-10.1,0-20.3,0.1-30.4c0-1.7-1.1-4.7,2.1-4.6c2.9,0,6.6-2,8.5,2.7c2.9,7.4,6.2,14.7,9.4,22C81.9,34.6,81.9,35.8,83.5,36.2z"/>
	<path class="st0" d="M227.9,36.5c2-5.3,3.9-10.5,5.9-15.8c1.3-3.4,5.1-4.9,8.4-3.7c1.8,0.7,1.1,1.7,0.7,2.8
		c-5.8,13.8-11.5,27.7-17.4,41.4c-1.5,3.4-5.2,2.2-7.6,1.5c-2.6-0.8-0.6-3.3,0.2-4.5c5-7.5,4.1-14.8,0-22.4
		c-2.4-4.4-4.1-9.1-5.7-13.8c-0.5-1.4-3.3-4,0-4.8c2.6-0.6,6.5-2.1,8.2,2.3c2.1,5.6,4.2,11.2,6.2,16.8
		C227.1,36.4,227.5,36.4,227.9,36.5z"/>
	<path class="st0" d="M141.5,32.4c0,3.5,0,7,0,10.5c0,5.4-2.3,7.3-7.3,5.1c-2.1-0.9-3.5-0.8-5.4-0.1c-9,3.2-16.7-1.7-17.3-11.3
		c-0.3-5.5,0-11-0.1-16.4c-0.1-3.4,2-3.1,4.3-3.2c2.4-0.1,4.3,0,4.1,3.3c-0.2,4.6-0.1,9.3,0,14c0,4.2,1.7,7.1,6.3,7.4
		c4.3,0.3,6.7-2.1,6.9-7.2c0.2-4.6,0.2-9.3,0-14c-0.1-3.7,2.3-3.3,4.6-3.4c2.6-0.1,4.1,0.5,3.9,3.5
		C141.4,24.5,141.5,28.4,141.5,32.4z"/>
	<path class="st0" d="M160.9,48.8c-4.1,0-8-0.9-10.9-4.1c-1.5-1.7-3.9-4.4-2.1-5.9c1.9-1.7,5.6-2.1,7.9,0.8c1.8,2.2,3.9,3,6.6,2.4
		c1.3-0.3,2.6-0.9,2.6-2.6c0-1.4-1-2.1-2.1-2.5c-2.8-1-5.7-1.6-8.5-2.7c-3.9-1.4-6.6-3.9-6.4-8.4c0.2-4.6,2.9-7.2,7.1-8.6
		c6.1-2,12.9-0.4,15.9,3.9c1.1,1.6,2.9,4.1,1.2,5.3c-1.9,1.4-5.2,1.9-7.2-0.5c-1.5-1.9-3.1-2.8-5.5-2.7c-1.5,0.1-3.1,0.4-3.4,2.3
		c-0.2,1.6,1.1,2.4,2.3,2.9c1.9,0.7,3.8,1.2,5.7,1.8c7,2.2,9.8,5.4,8.9,10.6C172.2,45.8,167.7,48.8,160.9,48.8z"/>
	<path class="st0" d="M195.5,35.8c0-2.5,0-5,0-7.5c0-1.9,0.2-3.6-2.2-4.9c-2.3-1.2-2.1-4.8-0.3-5.8c2.4-1.4,2.5-3.2,2.9-5.2
		c1-4.7,4.2-7,8.7-7.6c1.5-0.2,3.7-1.1,4.1,1.2c0.3,1.9,1.2,4.1-1.5,5.7c-4.2,2.5-4,3.1,0.6,5.3c1.9,0.9,1.5,2.4,1.5,3.8
		c0,1.3,0.1,3-1.8,2.9c-4-0.1-3.5,2.7-3.5,5.1c0,5.3-0.1,10.6,0.1,15.9c0.1,3.3-1.6,3.7-4.4,3.7c-2.6,0-4.6-0.2-4.4-3.6
		C195.6,41.8,195.5,38.8,195.5,35.8z"/>
	<path class="st0" d="M186,17c0.3,0.1,0.6,0.2,1,0.4c0,8.8,0,17.6,0.1,26.4c0,1.7,0.1,3.3-1.2,4.7c-6.7-0.2-6.7-0.2-6.7-6.8
		c0-7.7,0-15.3-0.1-23c0.2-0.4,0.4-0.9,0.6-1.3l0.1-0.1C181.9,17.2,183.9,17.1,186,17z"/>
	<path class="st0" d="M181.1,14.1c-0.5-0.7-0.9-1.3-1.4-2c-1.6-2.1-1.8-4.3,0-6.3c1.4-1.7,3.4-2.1,5.4-1.3c2.3,0.9,2.8,2.9,2.8,5.2
		c0.1,2.9-1.6,3.6-4,3.7c-0.4,0-0.8,0.5-1.2,0.7C182.2,14.2,181.7,14.2,181.1,14.1z"/>
	<path class="st0" d="M185.9,48.5c1.3-1.3,1.2-3,1.2-4.7c0-8.8-0.1-17.6-0.1-26.4c2.1,0.4,1.8,2.1,1.8,3.5c0,8.1,0.1,16.2,0,24.3
		C188.7,46.8,189.6,49.8,185.9,48.5z"/>
	<path class="st0" d="M181.1,14.1c0.5,0,1,0.1,1.6,0.1c0.5,1.7,3,0.9,3.3,2.8c-2.1,0.1-4.2,0.2-6.2,0.2
		C180.2,16.2,180.7,15.2,181.1,14.1z"/>
	<path class="st0" d="M179.7,17.3c-0.2,0.4-0.4,0.9-0.6,1.3C178.9,18.1,179.1,17.6,179.7,17.3z"/>
</g>
</svg>
